<svg width="60" height="60" viewBox="0 0 60 60" fill="none" xmlns="http://www.w3.org/2000/svg">
<path d="M49 30C49 40.4934 40.4934 49 30 49C19.5066 49 11 40.4934 11 30C11 19.5066 19.5066 11 30 11C40.4934 11 49 19.5066 49 30Z" stroke="#F72B6F" stroke-width="2"/>
<path d="M30.6 24.7C30.2 24.3 29.7 24.3 29.3 24.7L24 30.1C23.6 30.5 23.6 31.1 24 31.4L24.9 32.3C25.3 32.7 25.9 32.7 26.2 32.3L30 28.5L33.8 32.3C34.2 32.7 34.6999 32.7 35.0999 32.3L36 31.4C36.4 31 36.4 30.5 36 30.1L30.6 24.7Z" fill="#F72B6F"/>
</svg>
